<svg width='144' height="164.45376" viewBox="-6 -6.85224 12 13.70448" xmlns="http://www.w3.org/2000/svg">
<path d="m6 6.85224h-12v-13.70448h12z" fill="#063"/>
<path d="m4.8541 5.70634h-9.7082v-11.41268h9.7082z" fill="#fff"/>
<path d="m6 0-4.1459-1.34708v-4.35926l-2.5623 3.52671-4.1459-1.34708 2.5623 3.52671-2.5623 3.52671 4.1459-1.34708 2.5623 3.52671v-4.35926z" fill="#d21034"/>
<g stroke-width=".22">
	<circle fill="none" r="6" stroke="#0ac"/>
	<circle fill="none" r="2.2918" stroke="#0ac"/>
	<path d="m6 0h-8.2918m4.1459-1.34708-6.7082 4.87379m6.7082-9.23305-2.5623 7.88597m0-4.35926 2.5623 7.88597m-6.7082-9.23305 6.7082 4.87379" stroke="#0f0"/>
	<path d="m6 6.85224-12-13.70448m12 0-12 13.70448" fill="none" stroke="#00f"/>
</g>
<circle fill="#fff" r=".11"/>
<text dominant-baseline="middle" font-family="Consolas, monospace" font-size="1.17707" font-weight="800" x="-2.4" y="4.454">DZD</text>
</svg>